<svg xmlns="http://www.w3.org/2000/svg" data-name="Layer 1" viewBox="0 0 51.2 64" x="0px" y="0px"><path d="M41.45,26.5a3.11,3.11,0,0,0-3.13-3.13h-.16a3.11,3.11,0,0,0-2.71-4.67H24.35l1.36-1.35a3,3,0,0,0,0-4.23,3,3,0,0,0-3.41-.62c-3.78,2.11-7.7,4.45-10.61,7.72a7.8,7.8,0,0,0-2,5.18v4.46A9.76,9.76,0,0,0,19.29,39h13A3.12,3.12,0,0,0,35,34.31h.41a3.12,3.12,0,0,0,3.13-3.14,3.05,3.05,0,0,0-.42-1.53h.16A3.14,3.14,0,0,0,41.45,26.5ZM37,31.17a1.54,1.54,0,0,1-.45,1.09,1.5,1.5,0,0,1-1.08.45H25.28a.8.8,0,0,0,0,1.6h7a1.54,1.54,0,0,1,1.53,1.53,1.54,1.54,0,0,1-1.53,1.54h-13a8.13,8.13,0,0,1-7.94-7.58V25.4a6.21,6.21,0,0,1,1.57-4.12c2.74-3.08,6.53-5.34,10.12-7.34a1.45,1.45,0,0,1,1.55.31,1.38,1.38,0,0,1,0,2l-2.72,2.72a.84.84,0,0,0-.17.88.8.8,0,0,0,.74.49h13A1.54,1.54,0,0,1,37,21.83a1.54,1.54,0,0,1-1.53,1.54H25.28a.8.8,0,1,0,0,1.6h13a1.54,1.54,0,0,1,1.53,1.53A1.54,1.54,0,0,1,38.32,28h-13a.8.8,0,0,0,0,1.6H35.45A1.54,1.54,0,0,1,37,31.17Z"/><text x="0" y="66.2" fill="#000000" font-size="5px" font-weight="bold" font-family="'Helvetica Neue', Helvetica, Arial-Unicode, Arial, Sans-serif">Created by Ashwin Vgl</text><text x="0" y="71.2" fill="#000000" font-size="5px" font-weight="bold" font-family="'Helvetica Neue', Helvetica, Arial-Unicode, Arial, Sans-serif">from the Noun Project</text></svg>